# MagicaVoxel @ Ephtracy

# group
o 

# material
mtllib furnace.mtl
usemtl palette

# normals
vn -1 0 0
vn 1 0 0
vn 0 0 1
vn 0 0 -1
vn 0 -1 0
vn 0 1 0

# texcoords
vt 0.978516 0.5
vt 0.982422 0.5
vt 0.986328 0.5
vt 0.994141 0.5

# verts
v -0.7 0 0.7
v -0.7 0 -0.7
v -0.7 1.7 0.7
v -0.7 1.7 -0.7
v -0.7 1.9 0.7
v -0.7 1.9 0.6
v -0.7 1.9 -0.6
v -0.7 1.9 -0.7
v -0.7 2 0.6
v -0.7 2 0.4
v -0.7 2 -0.4
v -0.7 2 -0.6
v -0.7 2.2 0.4
v -0.7 2.2 0.2
v -0.7 2.2 -0.2
v -0.7 2.2 -0.4
v -0.7 2.3 0.2
v -0.7 2.3 -0.2
v -0.6 2.3 0.2
v -0.6 2.3 -0.2
v -0.6 2.7 0.2
v -0.6 2.7 -0.2
v -0.6 2.9 0.2
v -0.6 2.9 -0.2
v -0.3 1.8 0.1
v -0.3 1.8 -0.1
v -0.3 1.9 0.1
v -0.3 1.9 -0.1
v -0.3 2.3 0.1
v -0.3 2.3 -0.1
v -0.3 2.7 0.1
v -0.3 2.7 -0.1
v -0.3 2.9 0.1
v -0.3 2.9 -0.1
v -0.5 1.3 0.5
v -0.5 1.3 -0.5
v -0.5 1.7 0.5
v -0.5 1.7 0.4
v -0.5 1.7 -0.4
v -0.5 1.7 -0.5
v -0.5 1.8 0.4
v -0.5 1.8 0.1
v -0.5 1.8 -0.1
v -0.5 1.8 -0.4
v -0.5 1.9 0.1
v -0.5 1.9 -0.1
v -0.5 2.3 0.1
v -0.5 2.3 -0.1
v -0.5 2.7 0.1
v -0.5 2.7 -0.1
v -0.5 2.9 0.1
v -0.5 2.9 -0.1
v -0.2 2.3 0.2
v -0.2 2.3 -0.2
v -0.2 2.7 0.2
v -0.2 2.7 -0.2
v -0.2 2.9 0.2
v -0.2 2.9 -0.2
v 0.4 0 0.7
v 0.4 0 0.6
v 0.4 0 -0.6
v 0.4 0 -0.7
v 0.4 1.1 0.5
v 0.4 1.1 -0.5
v 0.4 1.2 0.5
v 0.4 1.2 -0.5
v 0.4 1.7 0.7
v 0.4 1.7 0.6
v 0.4 1.7 -0.6
v 0.4 1.7 -0.7
v 0.4 1.9 0.7
v 0.4 1.9 0.6
v 0.4 1.9 -0.6
v 0.4 1.9 -0.7
v 0.5 0 0.6
v 0.5 0 -0.6
v 0.5 0.3 0.3
v 0.5 0.3 -0.3
v 0.5 0.7 0.1
v 0.5 0.7 -0.1
v 0.5 0.8 0.1
v 0.5 0.8 -0.1
v 0.5 0.9 0.3
v 0.5 0.9 -0.3
v 0.5 1.1 0.5
v 0.5 1.1 -0.5
v 0.5 1.2 0.5
v 0.5 1.2 -0.5
v 0.5 1.3 0.5
v 0.5 1.3 -0.5
v 0.5 1.7 0.6
v 0.5 1.7 0.5
v 0.5 1.7 0.4
v 0.5 1.7 -0.4
v 0.5 1.7 -0.5
v 0.5 1.7 -0.6
v 0.5 1.8 0.4
v 0.5 1.8 -0.4
v 0.5 2 0.6
v 0.5 2 0.4
v 0.5 2 -0.4
v 0.5 2 -0.6
v 0.5 2.2 0.4
v 0.5 2.2 0.2
v 0.5 2.2 -0.2
v 0.5 2.2 -0.4
v 0.5 2.3 0.2
v 0.5 2.3 -0.2
v -0.7 0 0.7
v -0.7 1.7 0.7
v -0.7 1.9 0.7
v 0.4 0 0.7
v 0.4 1.7 0.7
v 0.4 1.9 0.7
v -0.7 1.9 0.6
v -0.7 2 0.6
v 0.4 0 0.6
v 0.4 1.7 0.6
v 0.4 1.9 0.6
v 0.5 0 0.6
v 0.5 1.7 0.6
v 0.5 2 0.6
v -0.7 2 0.4
v -0.7 2.2 0.4
v 0.5 2 0.4
v 0.5 2.2 0.4
v -0.7 2.2 0.2
v -0.7 2.3 0.2
v -0.6 2.3 0.2
v -0.6 2.7 0.2
v -0.6 2.9 0.2
v -0.2 2.3 0.2
v -0.2 2.7 0.2
v -0.2 2.9 0.2
v 0.5 2.2 0.2
v 0.5 2.3 0.2
v -0.5 1.8 -0.1
v -0.5 1.9 -0.1
v -0.5 2.3 -0.1
v -0.5 2.7 -0.1
v -0.5 2.9 -0.1
v -0.3 1.8 -0.1
v -0.3 1.9 -0.1
v -0.3 2.3 -0.1
v -0.3 2.7 -0.1
v -0.3 2.9 -0.1
v -0.5 1.7 -0.4
v -0.5 1.8 -0.4
v 0.5 1.7 -0.4
v 0.5 1.8 -0.4
v -0.5 1.3 -0.5
v -0.5 1.7 -0.5
v 0.4 1.1 -0.5
v 0.4 1.2 -0.5
v 0.5 1.1 -0.5
v 0.5 1.2 -0.5
v 0.5 1.3 -0.5
v 0.5 1.7 -0.5
v -0.5 1.3 0.5
v -0.5 1.7 0.5
v 0.4 1.1 0.5
v 0.4 1.2 0.5
v 0.5 1.1 0.5
v 0.5 1.2 0.5
v 0.5 1.3 0.5
v 0.5 1.7 0.5
v -0.5 1.7 0.4
v -0.5 1.8 0.4
v 0.5 1.7 0.4
v 0.5 1.8 0.4
v -0.5 1.8 0.1
v -0.5 1.9 0.1
v -0.5 2.3 0.1
v -0.5 2.7 0.1
v -0.5 2.9 0.1
v -0.3 1.8 0.1
v -0.3 1.9 0.1
v -0.3 2.3 0.1
v -0.3 2.7 0.1
v -0.3 2.9 0.1
v -0.7 2.2 -0.2
v -0.7 2.3 -0.2
v -0.6 2.3 -0.2
v -0.6 2.7 -0.2
v -0.6 2.9 -0.2
v -0.2 2.3 -0.2
v -0.2 2.7 -0.2
v -0.2 2.9 -0.2
v 0.5 2.2 -0.2
v 0.5 2.3 -0.2
v -0.7 2 -0.4
v -0.7 2.2 -0.4
v 0.5 2 -0.4
v 0.5 2.2 -0.4
v -0.7 1.9 -0.6
v -0.7 2 -0.6
v 0.4 0 -0.6
v 0.4 1.7 -0.6
v 0.4 1.9 -0.6
v 0.5 0 -0.6
v 0.5 1.7 -0.6
v 0.5 2 -0.6
v -0.7 0 -0.7
v -0.7 1.7 -0.7
v -0.7 1.9 -0.7
v 0.4 0 -0.7
v 0.4 1.7 -0.7
v 0.4 1.9 -0.7
v -0.7 0 0.7
v 0.4 0 0.7
v 0.4 0 0.6
v 0.5 0 0.6
v 0.4 0 -0.6
v 0.5 0 -0.6
v -0.7 0 -0.7
v 0.4 0 -0.7
v 0.4 1.2 0.5
v 0.5 1.2 0.5
v 0.4 1.2 -0.5
v 0.5 1.2 -0.5
v -0.5 1.7 0.5
v 0.5 1.7 0.5
v -0.5 1.7 0.4
v 0.5 1.7 0.4
v -0.5 1.7 -0.4
v 0.5 1.7 -0.4
v -0.5 1.7 -0.5
v 0.5 1.7 -0.5
v -0.5 1.8 0.4
v 0.5 1.8 0.4
v -0.5 1.8 0.1
v -0.3 1.8 0.1
v -0.5 1.8 -0.1
v -0.3 1.8 -0.1
v -0.5 1.8 -0.4
v 0.5 1.8 -0.4
v 0.4 1.1 0.5
v 0.5 1.1 0.5
v 0.4 1.1 -0.5
v 0.5 1.1 -0.5
v -0.5 1.3 0.5
v 0.5 1.3 0.5
v -0.5 1.3 -0.5
v 0.5 1.3 -0.5
v -0.7 1.9 0.7
v 0.4 1.9 0.7
v -0.7 1.9 0.6
v 0.4 1.9 0.6
v -0.7 1.9 -0.6
v 0.4 1.9 -0.6
v -0.7 1.9 -0.7
v 0.4 1.9 -0.7
v -0.7 2 0.6
v 0.5 2 0.6
v -0.7 2 0.4
v 0.5 2 0.4
v -0.7 2 -0.4
v 0.5 2 -0.4
v -0.7 2 -0.6
v 0.5 2 -0.6
v -0.7 2.2 0.4
v 0.5 2.2 0.4
v -0.7 2.2 0.2
v 0.5 2.2 0.2
v -0.7 2.2 -0.2
v 0.5 2.2 -0.2
v -0.7 2.2 -0.4
v 0.5 2.2 -0.4
v -0.7 2.3 0.2
v -0.6 2.3 0.2
v -0.2 2.3 0.2
v 0.5 2.3 0.2
v -0.7 2.3 -0.2
v -0.6 2.3 -0.2
v -0.2 2.3 -0.2
v 0.5 2.3 -0.2
v -0.6 2.9 0.2
v -0.2 2.9 0.2
v -0.5 2.9 0.1
v -0.3 2.9 0.1
v -0.5 2.9 -0.1
v -0.3 2.9 -0.1
v -0.6 2.9 -0.2
v -0.2 2.9 -0.2

# faces
f 3/3/1 2/3/1 1/3/1
f 4/3/1 2/3/1 3/3/1
f 5/2/1 4/2/1 3/2/1
f 6/2/1 4/2/1 5/2/1
f 7/2/1 4/2/1 6/2/1
f 8/2/1 4/2/1 7/2/1
f 9/2/1 7/2/1 6/2/1
f 10/2/1 7/2/1 9/2/1
f 11/2/1 7/2/1 10/2/1
f 12/2/1 7/2/1 11/2/1
f 13/2/1 11/2/1 10/2/1
f 14/2/1 11/2/1 13/2/1
f 15/2/1 11/2/1 14/2/1
f 16/2/1 11/2/1 15/2/1
f 17/2/1 15/2/1 14/2/1
f 18/2/1 15/2/1 17/2/1
f 21/3/1 20/3/1 19/3/1
f 22/3/1 20/3/1 21/3/1
f 23/4/1 22/4/1 21/4/1
f 24/4/1 22/4/1 23/4/1
f 27/2/1 26/2/1 25/2/1
f 28/2/1 26/2/1 27/2/1
f 29/1/1 28/1/1 27/1/1
f 30/1/1 28/1/1 29/1/1
f 31/3/1 30/3/1 29/3/1
f 32/3/1 30/3/1 31/3/1
f 33/4/1 32/4/1 31/4/1
f 34/4/1 32/4/1 33/4/1
f 35/3/2 36/3/2 37/3/2
f 37/3/2 36/3/2 38/3/2
f 38/3/2 36/3/2 39/3/2
f 39/3/2 36/3/2 40/3/2
f 38/2/2 39/2/2 41/2/2
f 41/2/2 39/2/2 42/2/2
f 42/2/2 39/2/2 43/2/2
f 43/2/2 39/2/2 44/2/2
f 42/2/2 43/2/2 45/2/2
f 45/2/2 43/2/2 46/2/2
f 45/1/2 46/1/2 47/1/2
f 47/1/2 46/1/2 48/1/2
f 47/3/2 48/3/2 49/3/2
f 49/3/2 48/3/2 50/3/2
f 49/4/2 50/4/2 51/4/2
f 51/4/2 50/4/2 52/4/2
f 53/3/2 54/3/2 55/3/2
f 55/3/2 54/3/2 56/3/2
f 55/4/2 56/4/2 57/4/2
f 57/4/2 56/4/2 58/4/2
f 63/3/2 64/3/2 65/3/2
f 65/3/2 64/3/2 66/3/2
f 59/3/2 60/3/2 67/3/2
f 67/3/2 60/3/2 68/3/2
f 61/3/2 62/3/2 69/3/2
f 69/3/2 62/3/2 70/3/2
f 67/2/2 68/2/2 71/2/2
f 71/2/2 68/2/2 72/2/2
f 69/2/2 70/2/2 73/2/2
f 73/2/2 70/2/2 74/2/2
f 75/3/2 76/3/2 77/3/2
f 77/3/2 76/3/2 78/3/2
f 77/4/2 78/4/2 79/4/2
f 79/4/2 78/4/2 80/4/2
f 77/4/2 79/4/2 81/4/2
f 79/1/2 80/1/2 81/1/2
f 80/4/2 78/4/2 82/4/2
f 81/1/2 80/1/2 82/1/2
f 75/3/2 77/3/2 83/3/2
f 77/4/2 81/4/2 83/4/2
f 81/4/2 82/4/2 83/4/2
f 82/4/2 78/4/2 84/4/2
f 83/4/2 82/4/2 84/4/2
f 78/3/2 76/3/2 84/3/2
f 75/3/2 83/3/2 85/3/2
f 83/3/2 84/3/2 85/3/2
f 84/3/2 76/3/2 86/3/2
f 85/3/2 84/3/2 86/3/2
f 75/3/2 85/3/2 87/3/2
f 86/3/2 76/3/2 88/3/2
f 75/3/2 87/3/2 89/3/2
f 87/3/2 88/3/2 89/3/2
f 88/3/2 76/3/2 90/3/2
f 89/3/2 88/3/2 90/3/2
f 75/3/2 89/3/2 91/3/2
f 91/3/2 89/3/2 92/3/2
f 90/3/2 76/3/2 95/3/2
f 95/3/2 76/3/2 96/3/2
f 92/2/2 93/2/2 97/2/2
f 91/2/2 92/2/2 97/2/2
f 95/2/2 96/2/2 98/2/2
f 94/2/2 95/2/2 98/2/2
f 91/2/2 97/2/2 99/2/2
f 97/2/2 98/2/2 99/2/2
f 99/2/2 98/2/2 100/2/2
f 98/2/2 96/2/2 101/2/2
f 100/2/2 98/2/2 101/2/2
f 101/2/2 96/2/2 102/2/2
f 100/2/2 101/2/2 103/2/2
f 103/2/2 101/2/2 104/2/2
f 104/2/2 101/2/2 105/2/2
f 105/2/2 101/2/2 106/2/2
f 104/2/2 105/2/2 107/2/2
f 107/2/2 105/2/2 108/2/2
f 112/3/3 110/3/3 109/3/3
f 113/2/3 111/2/3 110/2/3
f 113/3/3 110/3/3 112/3/3
f 114/2/3 111/2/3 113/2/3
f 119/2/3 116/2/3 115/2/3
f 120/3/3 118/3/3 117/3/3
f 121/2/3 119/2/3 118/2/3
f 121/3/3 118/3/3 120/3/3
f 122/2/3 116/2/3 119/2/3
f 122/2/3 119/2/3 121/2/3
f 125/2/3 124/2/3 123/2/3
f 126/2/3 124/2/3 125/2/3
f 129/2/3 128/2/3 127/2/3
f 132/2/3 129/2/3 127/2/3
f 132/3/3 130/3/3 129/3/3
f 133/4/3 131/4/3 130/4/3
f 133/3/3 130/3/3 132/3/3
f 134/4/3 131/4/3 133/4/3
f 135/2/3 132/2/3 127/2/3
f 136/2/3 132/2/3 135/2/3
f 142/2/3 138/2/3 137/2/3
f 142/2/3 139/2/3 138/2/3
f 143/2/3 139/2/3 142/2/3
f 144/3/3 140/3/3 139/3/3
f 144/2/3 139/2/3 143/2/3
f 145/4/3 141/4/3 140/4/3
f 145/3/3 140/3/3 144/3/3
f 146/4/3 141/4/3 145/4/3
f 149/2/3 148/2/3 147/2/3
f 150/2/3 148/2/3 149/2/3
f 155/3/3 154/3/3 153/3/3
f 156/3/3 154/3/3 155/3/3
f 157/3/3 152/3/3 151/3/3
f 158/3/3 152/3/3 157/3/3
f 161/3/4 162/3/4 163/3/4
f 163/3/4 162/3/4 164/3/4
f 159/3/4 160/3/4 165/3/4
f 165/3/4 160/3/4 166/3/4
f 167/2/4 168/2/4 169/2/4
f 169/2/4 168/2/4 170/2/4
f 171/2/4 172/2/4 176/2/4
f 172/2/4 173/2/4 176/2/4
f 176/2/4 173/2/4 177/2/4
f 173/3/4 174/3/4 178/3/4
f 177/2/4 173/2/4 178/2/4
f 174/4/4 175/4/4 179/4/4
f 178/3/4 174/3/4 179/3/4
f 179/4/4 175/4/4 180/4/4
f 181/2/4 182/2/4 183/2/4
f 181/2/4 183/2/4 186/2/4
f 183/3/4 184/3/4 186/3/4
f 184/4/4 185/4/4 187/4/4
f 186/3/4 184/3/4 187/3/4
f 187/4/4 185/4/4 188/4/4
f 181/2/4 186/2/4 189/2/4
f 189/2/4 186/2/4 190/2/4
f 191/2/4 192/2/4 193/2/4
f 193/2/4 192/2/4 194/2/4
f 195/2/4 196/2/4 199/2/4
f 197/3/4 198/3/4 200/3/4
f 198/2/4 199/2/4 201/2/4
f 200/3/4 198/3/4 201/3/4
f 199/2/4 196/2/4 202/2/4
f 201/2/4 199/2/4 202/2/4
f 203/3/4 204/3/4 206/3/4
f 204/2/4 205/2/4 207/2/4
f 206/3/4 204/3/4 207/3/4
f 207/2/4 205/2/4 208/2/4
f 211/3/5 210/3/5 209/3/5
f 213/3/5 211/3/5 209/3/5
f 213/3/5 212/3/5 211/3/5
f 214/3/5 212/3/5 213/3/5
f 215/3/5 213/3/5 209/3/5
f 216/3/5 213/3/5 215/3/5
f 219/3/5 218/3/5 217/3/5
f 220/3/5 218/3/5 219/3/5
f 223/2/5 222/2/5 221/2/5
f 224/2/5 222/2/5 223/2/5
f 227/2/5 226/2/5 225/2/5
f 228/2/5 226/2/5 227/2/5
f 231/2/5 230/2/5 229/2/5
f 232/2/5 230/2/5 231/2/5
f 234/2/5 230/2/5 232/2/5
f 235/2/5 234/2/5 233/2/5
f 236/2/5 230/2/5 234/2/5
f 236/2/5 234/2/5 235/2/5
f 237/3/6 238/3/6 239/3/6
f 239/3/6 238/3/6 240/3/6
f 241/3/6 242/3/6 243/3/6
f 243/3/6 242/3/6 244/3/6
f 245/2/6 246/2/6 247/2/6
f 247/2/6 246/2/6 248/2/6
f 249/2/6 250/2/6 251/2/6
f 251/2/6 250/2/6 252/2/6
f 253/2/6 254/2/6 255/2/6
f 255/2/6 254/2/6 256/2/6
f 257/2/6 258/2/6 259/2/6
f 259/2/6 258/2/6 260/2/6
f 261/2/6 262/2/6 263/2/6
f 263/2/6 262/2/6 264/2/6
f 265/2/6 266/2/6 267/2/6
f 267/2/6 266/2/6 268/2/6
f 269/2/6 270/2/6 273/2/6
f 273/2/6 270/2/6 274/2/6
f 271/2/6 272/2/6 275/2/6
f 275/2/6 272/2/6 276/2/6
f 277/4/6 278/4/6 279/4/6
f 279/4/6 278/4/6 280/4/6
f 277/4/6 279/4/6 281/4/6
f 280/4/6 278/4/6 282/4/6
f 277/4/6 281/4/6 283/4/6
f 281/4/6 282/4/6 283/4/6
f 282/4/6 278/4/6 284/4/6
f 283/4/6 282/4/6 284/4/6
